<svg width="38" height="36" viewBox="0 0 38 36" fill="none" xmlns="http://www.w3.org/2000/svg">
<path d="M37.1606 17.25C36.8419 13.8211 34.288 10.6397 30.1532 8.51961C29.7488 8.31373 29.3223 8.11275 28.8861 7.92647C25.9424 6.66667 22.5233 6 19.0013 6C15.4792 6 12.0576 6.66667 9.11401 7.92647C8.66303 8.1201 8.24636 8.31618 7.84685 8.52206C3.7145 10.6397 1.16058 13.8211 0.839499 17.25C0.814989 17.4975 0.802734 17.7475 0.802734 17.9975C0.802734 18.2475 0.814989 18.4975 0.839499 18.7451C1.15813 22.1765 3.71205 25.3578 7.84685 27.4755C8.25126 27.6863 8.68018 27.8873 9.11891 28.0735C12.065 29.3333 15.4817 30 19.0013 30C22.5209 30 25.9351 29.3333 28.8812 28.0735C29.3101 27.8922 29.739 27.6912 30.1532 27.4804C34.288 25.3603 36.8419 22.1789 37.1606 18.75C37.1851 18.5049 37.1973 18.2549 37.1973 18.0025C37.1973 17.75 37.1851 17.5 37.1606 17.2549V17.25ZM18.1434 25.8627V28.2255C14.1851 27.723 11.0013 23.7328 10.6728 18.8554H14.8297L15.1508 17.1397H10.6728C11.0013 12.2598 14.1851 8.27206 18.1434 7.77206V10.1348H19.8591V7.77206C23.8174 8.27451 26.9988 12.2623 27.3272 17.1397H23.0184L23.2929 18.8554H27.3272C26.9988 23.7353 23.8174 27.723 19.8591 28.2255V25.8627H18.1434ZM2.57724 17.1397C3.0944 13.2574 7.11156 9.88725 12.9155 8.44363C10.5944 10.5417 9.16303 13.6765 8.95715 17.1397H2.57724ZM8.95469 18.8554C9.16058 22.3211 10.5919 25.4559 12.913 27.5539C7.11156 26.1103 3.0944 22.7402 2.57724 18.8554H8.95469ZM29.0454 18.8554H35.4228C34.9057 22.7377 30.8861 26.1103 25.0846 27.5539C27.4057 25.4583 28.8395 22.3235 29.0454 18.8554ZM29.0454 17.1397C28.8395 13.674 27.4057 10.5392 25.0846 8.44363C30.8885 9.8848 34.9057 13.2549 35.4228 17.1397H29.0454Z" fill="#EC762E"/>
<path d="M22.4081 24.1471L20.4253 11.8505H17.8787L16.6042 18.7108L15.5919 24.1471H17.7488L19.1361 16.4706L19.4645 18.75L19.614 19.8211L20.2341 24.1471H22.4081Z" fill="#EC762E"/>
</svg>
