<svg width="101" height="100" viewBox="0 0 101 100" fill="none" xmlns="http://www.w3.org/2000/svg">
<g clip-path="url(#clip0_14295_80176)">
<path d="M31.6097 72.3782V72.3623H31.5938L31.6097 72.3782Z" fill="#FAFAFA"/>
<path d="M31.6017 86.1476L31.5938 86.1396C31.5938 86.145 31.5938 86.1503 31.5938 86.1565C31.5991 86.1565 31.6044 86.1565 31.6097 86.1565V86.1405H31.5938L31.6008 86.1485L31.6017 86.1476Z" fill="#FAFAFA"/>
<path d="M90.1736 89.6279L90.1719 89.6297C90.1772 89.6297 90.1825 89.6297 90.1887 89.6297C90.1887 89.6244 90.1887 89.6191 90.1887 89.6138H90.1728V89.6297L90.1745 89.6279H90.1736Z" fill="#FAFAFA"/>
<path d="M31.6017 3.48429L31.5938 3.47632V3.49226H31.6097C31.6097 3.49226 31.6061 3.48871 31.6017 3.48429Z" fill="#FAFAFA"/>
<path d="M69.4492 6.94873V6.96555H69.466L69.4492 6.94873Z" fill="#FAFAFA"/>
<path d="M24.1292 75.8338C20.311 75.8524 16.4927 75.8444 12.6754 75.8444C8.85805 75.8444 4.99998 75.8506 1.16316 75.8347C0.76655 75.8338 0.653233 75.9205 0.654118 76.3332C0.668283 84.0285 0.669168 91.7229 0.652348 99.4173C0.651463 99.8742 0.792223 99.9379 1.19945 99.9379C8.85451 99.9255 16.5105 99.9255 24.1655 99.9379C24.6002 99.9388 24.7454 99.8538 24.7445 99.381C24.7277 91.7247 24.7268 84.0683 24.7454 76.4128C24.7471 75.9019 24.5825 75.832 24.1292 75.8338ZM21.3105 96.0438C21.3114 96.4298 21.2033 96.5219 20.8298 96.5193C18.111 96.5042 15.3923 96.5113 12.6736 96.5113C9.95492 96.5113 7.27428 96.5033 4.57504 96.521C4.17932 96.5237 4.06069 96.4334 4.06158 96.019C4.07663 90.6002 4.07574 85.1813 4.06246 79.7624C4.06158 79.372 4.17755 79.2896 4.5476 79.2905C9.98502 79.302 15.4233 79.302 20.8607 79.2905C21.2078 79.2896 21.3114 79.3631 21.3105 79.7288C21.2972 85.1671 21.2963 90.6055 21.3105 96.0438Z" fill="#FAFAFA"/>
<path d="M1.19379 24.1244C8.84973 24.112 16.5066 24.1111 24.1625 24.1244C24.6078 24.1252 24.7415 24.0243 24.7397 23.5586C24.7193 19.7592 24.7282 15.9598 24.7282 12.1604C24.7282 8.36098 24.722 4.48455 24.7362 0.646193C24.7379 0.224727 24.676 0.0494109 24.1829 0.0502963C16.5074 0.068005 8.83203 0.0662341 1.15661 0.0529526C0.744066 0.0529526 0.650225 0.174257 0.651111 0.570931C0.662619 8.24676 0.66439 15.9226 0.648455 23.5993C0.646684 24.05 0.779477 24.1252 1.19379 24.1244ZM4.0568 3.97277C4.05503 3.55484 4.18074 3.47338 4.57292 3.47427C9.99264 3.48666 15.4132 3.48666 20.8338 3.47427C21.2136 3.47338 21.3075 3.57344 21.3048 3.94798C21.2889 6.66803 21.296 9.38808 21.296 12.109C21.296 14.83 21.288 17.5102 21.3057 20.2116C21.3083 20.6083 21.2172 20.7252 20.8037 20.7243C15.4026 20.7092 10.0015 20.7092 4.60037 20.7243C4.16304 20.7261 4.05503 20.6101 4.0568 20.178C4.07185 14.7759 4.07185 9.3748 4.0568 3.97277Z" fill="#FAFAFA"/>
<path d="M100.489 12.1081C100.489 8.28926 100.479 4.4695 100.501 0.650622C100.503 0.170717 100.388 0.0494127 99.903 0.0502982C92.2851 0.0671214 84.6663 0.0680069 77.0476 0.0502982C76.5438 0.0494127 76.4093 0.160977 76.4102 0.681612C76.4296 8.30077 76.4287 15.9199 76.411 23.5391C76.4093 24.0385 76.5545 24.127 77.0201 24.1261C84.6575 24.1102 92.2957 24.1111 99.9331 24.1252C100.377 24.1261 100.502 24.0252 100.501 23.5656C100.48 19.7468 100.489 15.9279 100.489 12.1081ZM96.5318 20.7234C91.1696 20.7092 85.8066 20.7057 80.4444 20.7278C79.9292 20.7305 79.8628 20.5631 79.8663 20.1116C79.8876 17.4305 79.8769 14.7485 79.8769 12.0674C79.8769 9.38631 79.8849 6.70433 79.869 4.02235C79.8663 3.62834 79.9079 3.46719 80.3807 3.46896C85.7818 3.49021 91.1829 3.48844 96.584 3.47161C97.0249 3.47161 97.1179 3.58849 97.117 4.01438C97.101 9.39694 97.0993 14.7795 97.1187 20.162C97.1205 20.6419 96.9674 20.7243 96.5318 20.7234Z" fill="#FAFAFA"/>
<path d="M17.8031 34.5361C17.8075 34.5308 17.8137 34.5246 17.8128 34.5255C17.8075 34.5255 17.8022 34.5255 17.7978 34.5255C17.7978 34.5308 17.7978 34.537 17.7978 34.5423H17.7969L17.8128 34.5432V34.5264C17.8128 34.5264 17.8075 34.5326 17.804 34.5361H17.8031Z" fill="#FAFAFA"/>
<path d="M86.7121 58.585H86.6953V58.6018C86.7006 58.6018 86.7059 58.6018 86.7112 58.6018C86.7112 58.5965 86.7112 58.5912 86.7112 58.5858L86.7121 58.585Z" fill="#FAFAFA"/>
<path d="M7.51568 58.9991C7.53073 61.0436 7.53073 63.0889 7.51568 65.1334C7.51303 65.4592 7.59979 65.5566 7.92823 65.5478C8.81528 65.5247 9.70322 65.5548 10.5894 65.5327C10.9169 65.5247 11.0117 65.6177 11.0037 65.9462C10.9807 66.8139 11.0072 67.6825 10.9895 68.5503C10.9842 68.8292 11.0657 68.9098 11.3437 68.9044C12.2112 68.8876 13.0797 68.9133 13.9473 68.8903C14.2757 68.8814 14.3687 68.9779 14.3607 69.3047C14.3386 70.2105 14.3634 71.118 14.3465 72.0238C14.3412 72.3036 14.4253 72.3824 14.7015 72.3771C15.5886 72.3603 16.4765 72.3506 17.3627 72.3807C17.7443 72.3931 17.8399 72.2806 17.8346 71.9061C17.8133 70.3442 17.8257 68.7814 17.8257 67.2186C17.8257 65.6558 17.8169 64.0549 17.8337 62.4735C17.8372 62.1468 17.7487 62.0512 17.4203 62.0592C16.5332 62.0813 15.6453 62.0521 14.7591 62.0742C14.4315 62.0822 14.3368 61.9883 14.3457 61.6607C14.3678 60.7735 14.3386 59.8854 14.3607 58.9991C14.3687 58.6706 14.2731 58.5838 13.9464 58.5865C11.9403 58.6015 9.93428 58.6015 7.92911 58.5865C7.60244 58.5838 7.51303 58.6724 7.51568 59V58.9991Z" fill="#FAFAFA"/>
<path d="M90.7371 62.0572C93.8205 62.0758 96.9039 62.0589 99.9874 62.0766C100.389 62.0793 100.51 61.9872 100.492 61.5764C100.457 60.7299 100.464 59.8799 100.49 59.0325C100.501 58.6828 100.418 58.5827 100.051 58.5845C95.6052 58.6013 91.1584 58.5987 86.7125 58.6013C86.7099 60.7742 86.7125 62.9461 86.6993 65.1181C86.6975 65.4218 86.7418 65.5591 87.095 65.5484C87.9997 65.5219 88.9063 65.5236 89.8119 65.5484C90.1359 65.5573 90.1891 65.436 90.1837 65.1526C90.1687 64.3053 90.2094 63.4553 90.166 62.6088C90.1413 62.1369 90.3033 62.0536 90.7371 62.0563V62.0572Z" fill="#FAFAFA"/>
<path d="M62.6172 96.4611H62.6331C62.6331 96.4558 62.6331 96.4504 62.6331 96.4442C62.6331 96.4442 62.6287 96.4487 62.6252 96.4522L62.6331 96.4434H62.6172V96.4593V96.4611Z" fill="#FAFAFA"/>
<path d="M63.019 99.9343C66.1972 99.9201 69.3754 99.9219 72.5544 99.9325C72.8572 99.9334 72.944 99.8511 72.9378 99.5491C72.9183 98.6637 72.913 97.7765 72.9395 96.891C72.9502 96.5395 72.8643 96.4412 72.5004 96.4439C69.2125 96.4625 65.9236 96.4581 62.6357 96.4607C62.633 97.4763 62.641 98.4919 62.6215 99.5075C62.6153 99.8147 62.672 99.9361 63.0199 99.9352L63.019 99.9343Z" fill="#FAFAFA"/>
<path d="M100.489 86.5256C100.49 86.2237 100.41 86.1351 100.106 86.1413C99.2203 86.1617 98.3333 86.1661 97.448 86.1395C97.0983 86.1289 96.9974 86.2113 97.0001 86.5778C97.0186 89.8663 97.0151 93.1548 97.0178 96.4433C98.0332 96.446 99.0486 96.4389 100.063 96.4593C100.37 96.4655 100.492 96.4079 100.49 96.0608C100.476 92.8821 100.477 89.7043 100.488 86.5256H100.489Z" fill="#FAFAFA"/>
<path d="M31.5938 72.3623C31.5938 72.3676 31.5938 72.3729 31.5938 72.3791C31.5991 72.3791 31.6044 72.3791 31.6106 72.3791L31.5938 72.3623Z" fill="#FAFAFA"/>
<path d="M28.1211 72.7614C28.1388 74.8218 28.1362 76.8822 28.1229 78.9417C28.1211 79.2445 28.2044 79.3313 28.5062 79.3251C29.3915 79.3056 30.2777 79.3012 31.163 79.3269C31.5109 79.3366 31.6162 79.2578 31.6127 78.8895C31.5906 76.7193 31.5976 74.5491 31.595 72.3789C30.5805 72.3762 29.565 72.3842 28.5505 72.3656C28.246 72.3603 28.1185 72.4108 28.1211 72.7623V72.7614Z" fill="#FAFAFA"/>
<path d="M0.571669 30.692C0.566358 30.9726 0.65223 31.0461 0.927554 31.0444C3.01063 31.0337 5.0937 31.0328 7.17678 31.0444C7.45653 31.0461 7.53532 30.9655 7.53001 30.6893C7.51319 29.7826 7.50876 28.8759 7.53178 27.9692C7.53975 27.639 7.44148 27.5504 7.11658 27.5575C6.11444 27.5779 5.11053 27.5655 4.1075 27.5655C3.10447 27.5655 2.02442 27.5788 0.983327 27.5575C0.654001 27.5504 0.562816 27.6461 0.570784 27.9728C0.592916 28.8786 0.589375 29.7862 0.571669 30.6928V30.692Z" fill="#FAFAFA"/>
<path d="M90.1696 96.8938C90.1944 97.7784 90.1909 98.6656 90.1705 99.5501C90.1634 99.8538 90.2529 99.9353 90.5539 99.9326C92.575 99.9193 94.5969 99.9167 96.6181 99.9344C96.9704 99.9379 97.0191 99.8078 97.0138 99.5041C96.9952 98.4894 97.0023 97.4746 96.9996 96.4591C94.8679 96.4564 92.737 96.4644 90.6052 96.4422C90.236 96.4387 90.159 96.5458 90.1688 96.892L90.1696 96.8938Z" fill="#FAFAFA"/>
<path d="M97 96.4443C97 96.4496 97 96.455 97 96.4612H97.0168C97.0168 96.4612 97.0124 96.4567 97.0089 96.4532L97.0168 96.4612V96.4443C97.0115 96.4443 97.0062 96.4443 97 96.4443ZM97.008 96.4523C97.008 96.4523 97.0035 96.4479 97.0027 96.447L97.008 96.4523Z" fill="#FAFAFA"/>
<path d="M83.2274 93.1033C83.2328 93.1033 83.2381 93.1033 83.2434 93.1033C83.2434 93.098 83.2434 93.0927 83.2434 93.0874H83.2266V93.1042L83.2274 93.1033Z" fill="#FAFAFA"/>
<path d="M83.6725 99.9345C84.5578 99.9097 85.4439 99.9133 86.3292 99.9336C86.6329 99.9407 86.7143 99.8513 86.7125 99.5503C86.6993 97.5288 86.6966 95.5065 86.7143 93.485C86.7178 93.1326 86.5877 93.0839 86.2841 93.0892C85.2695 93.1078 84.255 93.1007 83.2396 93.1034C83.2369 95.2355 83.2449 97.3668 83.2227 99.498C83.2192 99.8672 83.3263 99.9443 83.6725 99.9345Z" fill="#FAFAFA"/>
<path d="M31.6042 96.5689C31.6042 95.5276 31.5945 94.4854 31.6104 93.4442C31.6148 93.167 31.536 93.0838 31.2563 93.0891C30.3312 93.1059 29.4043 93.1059 28.4791 93.0891C28.2012 93.0838 28.1233 93.1653 28.125 93.4433C28.1365 95.4877 28.1365 97.5331 28.125 99.5776C28.1233 99.8547 28.1994 99.9379 28.4783 99.9326C29.3848 99.9158 30.2913 99.9114 31.1979 99.9344C31.5254 99.9424 31.6184 99.8485 31.6113 99.5209C31.59 98.5372 31.6033 97.5535 31.6033 96.5698L31.6042 96.5689Z" fill="#FAFAFA"/>
<path d="M4.04385 48.28C4.04385 48.2853 4.04385 48.2907 4.04385 48.2969C4.04917 48.2969 4.05448 48.2969 4.05979 48.2969V48.28H4.04297H4.04385Z" fill="#FAFAFA"/>
<path d="M0.570353 48.6794C0.588059 50.7009 0.585403 52.7232 0.572124 54.7447C0.570353 55.0475 0.65357 55.1342 0.955452 55.1281C1.84074 55.1086 2.72691 55.1041 3.61219 55.1298C3.96011 55.1396 4.06546 55.0608 4.06192 54.6924C4.03978 52.5612 4.04687 50.4291 4.04421 48.2978C3.02967 48.2952 2.01425 48.3031 0.999716 48.2845C0.695178 48.2792 0.567697 48.3297 0.570353 48.6803V48.6794Z" fill="#FAFAFA"/>
<path d="M0.946944 72.379C1.85259 72.356 2.76001 72.3604 3.66565 72.3764C3.95337 72.3817 4.07997 72.3233 4.05872 72.0018C4.02951 71.56 4.05164 71.1155 4.05164 70.6719C4.05164 70.2283 4.03659 69.7458 4.05695 69.2836C4.07023 68.9958 4.00295 68.8816 3.68336 68.8895C2.77771 68.9126 1.8703 68.9081 0.96465 68.8922C0.677817 68.8869 0.56273 68.9462 0.570698 69.2667C0.593715 70.1725 0.589289 71.0801 0.573354 71.9859C0.568042 72.2737 0.627356 72.3879 0.947829 72.3799L0.946944 72.379Z" fill="#FAFAFA"/>
<path d="M79.7609 96.5408C79.4413 96.2548 78.6632 96.4815 78.0877 96.4815C77.5371 96.501 76.8014 96.2132 76.488 96.5656C76.2171 96.8702 76.3968 97.5918 76.4101 98.1284C76.4252 98.7181 76.1543 99.507 76.5225 99.8399C76.8439 100.13 77.6212 99.9364 78.1966 99.9214C78.7481 99.9072 79.4829 100.168 79.7963 99.8151C80.0672 99.5097 79.8875 98.7889 79.8742 98.2523C79.8592 97.6626 80.1301 96.8711 79.7618 96.5417L79.7609 96.5408Z" fill="#FAFAFA"/>
<path d="M0.657356 65.4264C0.969861 65.7824 1.70642 65.491 2.25618 65.515C2.8325 65.515 3.60801 65.7416 3.93114 65.4556C4.30296 65.1271 4.02941 64.3356 4.04534 63.7459C4.05951 63.2093 4.2401 62.4894 3.97009 62.1813C3.65759 61.8245 2.92191 62.0883 2.37127 62.0733C1.79583 62.0573 1.02032 61.8625 0.696308 62.1521C0.324489 62.4841 0.598042 63.273 0.582107 63.8627C0.567942 64.3993 0.387344 65.1192 0.657356 65.4273V65.4264Z" fill="#FAFAFA"/>
<path d="M90.5645 93.1044C91.4675 93.0769 92.3722 93.0822 93.2761 93.1026C93.5798 93.1088 93.6656 93.0211 93.6586 92.7192C93.6391 91.8161 93.6329 90.9112 93.6603 90.008C93.6709 89.6494 93.5249 89.6113 93.2265 89.6166C92.2129 89.6344 91.1992 89.6282 90.1856 89.6308C90.1829 90.6446 90.19 91.6585 90.1723 92.6723C90.167 92.9716 90.2059 93.1159 90.5645 93.1053V93.1044Z" fill="#FAFAFA"/>
<path d="M24.4549 68.8923C23.5103 68.9056 22.5648 68.9064 21.6202 68.8923C21.3643 68.8887 21.2926 68.9658 21.2971 69.2181C21.3103 70.1629 21.3112 71.1085 21.2971 72.0533C21.2935 72.3092 21.3705 72.3871 21.6229 72.3765C22.085 72.3579 22.548 72.3711 23.011 72.3711C23.474 72.3711 23.9759 72.3579 24.4575 72.3765C24.7143 72.3871 24.7851 72.303 24.7815 72.0506C24.7674 71.1059 24.7674 70.1602 24.7815 69.2155C24.7851 68.9605 24.7081 68.8879 24.4558 68.8923H24.4549Z" fill="#FAFAFA"/>
<path d="M35.0822 3.09748C35.0548 2.19434 35.0601 1.28943 35.0804 0.386284C35.0875 0.0825797 34.999 -0.00330732 34.6971 0.00377615C33.7932 0.0232557 32.8894 0.0294537 31.9855 0.00200528C31.6261 -0.00861992 31.5889 0.137477 31.5942 0.435868C31.6119 1.44969 31.6057 2.46351 31.6084 3.47733C32.622 3.47999 33.6357 3.47291 34.6493 3.49061C34.9485 3.49593 35.0928 3.45608 35.0822 3.09837V3.09748Z" fill="#FAFAFA"/>
<path d="M31.6106 3.49216C31.6106 3.48685 31.6106 3.48154 31.6106 3.47534C31.6053 3.47534 31.5999 3.47534 31.5938 3.47534L31.6106 3.49216Z" fill="#FAFAFA"/>
<path d="M17.4652 31.0334C16.432 31.0476 15.398 31.044 14.3649 31.0467C14.3622 32.0632 14.38 33.0797 14.3445 34.0952C14.3313 34.4875 14.4853 34.5229 14.8084 34.5185C15.8053 34.5043 16.8021 34.5211 17.7998 34.5256C17.8095 33.4728 17.8078 32.4209 17.8352 31.3699C17.8432 31.0679 17.7201 31.0299 17.4652 31.0334Z" fill="#FAFAFA"/>
<path d="M14.3645 31.03C14.3592 31.03 14.3539 31.03 14.3477 31.03C14.3477 31.0353 14.3477 31.0407 14.3477 31.0469C14.3477 31.0469 14.3503 31.0442 14.3539 31.0407L14.3477 31.0469C14.353 31.0469 14.3583 31.0469 14.3645 31.0469C14.3645 31.0415 14.3645 31.0362 14.3645 31.03Z" fill="#FAFAFA"/>
<path d="M28.1177 86.5352C28.1452 87.4383 28.1399 88.3432 28.1195 89.2464C28.1124 89.5501 28.201 89.6359 28.5028 89.6289C29.4067 89.6094 30.3106 89.6032 31.2145 89.6306C31.5739 89.6413 31.6111 89.4952 31.6058 89.1968C31.5881 88.183 31.5942 87.1691 31.5916 86.1553C30.5779 86.1527 29.5643 86.1597 28.5506 86.142C28.2514 86.1367 28.1071 86.1766 28.1177 86.5343V86.5352Z" fill="#FAFAFA"/>
<path d="M72.5031 6.96678C72.8723 6.97829 72.9484 6.86318 72.9387 6.51786C72.9139 5.63508 72.9201 4.75054 72.936 3.86687C72.9414 3.57822 72.8776 3.46931 72.5616 3.4764C71.5302 3.5003 70.498 3.48968 69.4666 3.49233C69.4666 4.64517 69.4657 5.79712 69.4648 6.94995C70.4776 6.95172 71.4904 6.93667 72.5023 6.96678H72.5031Z" fill="#FAFAFA"/>
<path d="M69.4531 3.49143C69.4584 3.49143 69.4637 3.49143 69.4699 3.49143C69.4699 3.48612 69.4699 3.48081 69.4699 3.47461L69.462 3.48258L69.454 3.49055L69.4531 3.49143Z" fill="#FAFAFA"/>
<path d="M69.466 6.96555V6.94873C69.4607 6.94873 69.4554 6.94873 69.4492 6.94873L69.466 6.96555Z" fill="#FAFAFA"/>
<path d="M69.4581 3.48307L69.466 3.4751C69.4607 3.4751 69.4554 3.4751 69.4492 3.4751C69.4492 3.48041 69.4492 3.48572 69.4492 3.49192C69.4492 3.49192 69.4536 3.48749 69.4572 3.48395L69.4581 3.48307Z" fill="#FAFAFA"/>
<path d="M66.5272 3.48973C67.5019 3.47114 68.4775 3.47822 69.4531 3.47556C69.4557 2.46174 69.4486 1.44792 69.4663 0.4341C69.4717 0.134823 69.4327 -0.0103882 69.0742 0.00112247C68.2101 0.0285709 67.3434 0.0232583 66.4785 0.00289334C66.1749 -0.00419013 66.089 0.0843532 66.0961 0.386286C66.1155 1.28943 66.1217 2.19434 66.0943 3.09748C66.0837 3.45608 66.2289 3.49416 66.5281 3.48885L66.5272 3.48973Z" fill="#FAFAFA"/>
<path d="M13.9687 27.5567C13.1038 27.5841 12.238 27.5788 11.373 27.5585C11.0694 27.5514 10.9835 27.6399 10.9906 27.9419C11.0101 28.845 11.0163 29.7499 10.9888 30.6531C10.9782 31.0117 11.1234 31.0497 11.4226 31.0444C12.3973 31.0258 13.3729 31.0329 14.3485 31.0303C14.3511 30.0164 14.3441 29.0026 14.3618 27.9888C14.3671 27.6895 14.3281 27.5443 13.9696 27.5558L13.9687 27.5567Z" fill="#FAFAFA"/>
<path d="M14.271 51.8767C13.9585 51.5198 13.2228 51.7846 12.6722 51.7677C12.1357 51.7518 11.416 51.5721 11.1079 51.8421C10.752 52.1547 11.0433 52.8914 11.0194 53.4412C11.0194 53.9787 10.8087 54.6985 11.0742 55.0058C11.3841 55.3626 12.1215 55.0979 12.6722 55.1147C13.2087 55.1306 13.9284 55.3104 14.2365 55.0403C14.5932 54.7278 14.3285 53.992 14.3454 53.4412C14.3613 52.9046 14.541 52.1848 14.271 51.8767Z" fill="#FAFAFA"/>
<path d="M86.7135 55.1281V55.1122C87.744 55.1148 88.7736 55.1069 89.8032 55.1272C90.1042 55.1334 90.1918 55.0484 90.1856 54.7456C90.1644 53.7539 90.1732 52.7622 90.1706 51.7705H90.1865V51.7537C91.217 51.7564 92.2475 51.7484 93.277 51.7697C93.5798 51.7759 93.6648 51.6882 93.6586 51.3872C93.6382 50.3574 93.6462 49.3276 93.6435 48.297H93.6595V48.2802C94.5793 48.2837 95.5 48.3138 96.418 48.2775C96.8793 48.2598 97.0324 48.3537 97.0236 48.8566C96.9882 50.8028 97.0147 52.7498 97.0032 54.696C97.0014 54.9962 97.0377 55.1396 97.3963 55.129C98.301 55.1015 99.2076 55.1051 100.112 55.1281C100.43 55.1361 100.488 55.0245 100.488 54.7359C100.481 48.1261 100.479 41.5155 100.489 34.9057C100.49 34.5604 100.374 34.4993 100.065 34.5055C99.0491 34.5258 98.0337 34.5179 97.0174 34.5205V34.5037H97.0006C97.0032 32.3344 97.0014 30.1651 97.0138 27.9958C97.0156 27.7053 96.9979 27.5522 96.6296 27.5557C94.6094 27.5752 92.5883 27.5743 90.5681 27.5566C90.2157 27.553 90.167 27.6832 90.1723 27.986C90.1918 29.0007 90.1847 30.0154 90.1874 31.0301H90.1706V31.0461H86.7135V31.0301H86.6967C86.7003 30.0154 86.6826 28.9998 86.7162 27.9851C86.7286 27.6009 86.5878 27.5566 86.2576 27.5584C83.1193 27.5699 79.9809 27.5708 76.8426 27.5566C76.4974 27.5557 76.3894 27.6239 76.3929 27.9931C76.415 30.1633 76.4079 32.3335 76.4106 34.5037H76.3947V34.5205H72.9376V34.5037H72.9217C72.9243 33.4713 72.9146 32.4398 72.9376 31.4082C72.9447 31.0939 72.8394 31.0266 72.5481 31.0319C71.6451 31.0496 70.7421 31.0487 69.8391 31.0319C69.5496 31.0266 69.4416 31.0921 69.4487 31.4073C69.4726 32.4389 69.4629 33.4713 69.4655 34.5037H69.4487V34.5196H66.1077V34.5037H66.0908C66.097 32.1936 66.1032 29.8844 66.1094 27.5743C68.2421 27.5708 70.3747 27.5628 72.5074 27.5708C72.8093 27.5725 72.9385 27.53 72.9385 27.1767C72.9261 21.7242 72.9261 16.2717 72.9376 10.8192C72.9385 10.4677 72.8128 10.4172 72.5083 10.4234C71.661 10.442 70.8112 10.3978 69.9666 10.4429C69.5063 10.4668 69.4354 10.3048 69.4469 9.89661C69.4744 8.91998 69.4514 7.94335 69.4478 6.96583C68.4705 6.96229 67.4931 6.98088 66.5175 6.94635C66.128 6.93218 66.0855 7.08182 66.0926 7.40766C66.113 8.2745 66.0873 9.14222 66.1059 10.0091C66.113 10.3137 66.0616 10.4491 65.7093 10.4385C64.8045 10.4119 63.898 10.4146 62.9932 10.4385C62.6701 10.4465 62.6161 10.3269 62.6214 10.0427C62.6364 9.17587 62.601 8.30814 62.6373 7.44219C62.655 7.02338 62.5214 6.94281 62.1274 6.94635C60.1426 6.96848 58.1578 6.94369 56.1739 6.96671C55.7702 6.97114 55.6657 6.87286 55.6701 6.46556C55.6932 4.46182 55.6728 2.4572 55.6887 0.453462C55.6914 0.113455 55.6303 -0.00430745 55.2549 0.000119715C53.271 0.0213701 51.2862 0.016943 49.3023 0.00277602C48.9765 0.00100515 48.8287 0.0381933 48.8393 0.427784C48.8694 1.44249 48.8446 2.45897 48.8411 3.47456C47.8256 3.47722 46.8102 3.45951 45.7957 3.49404C45.4079 3.50732 45.3628 3.35946 45.3707 3.03273C45.3911 2.16589 45.3663 1.29905 45.384 0.432211C45.3902 0.129393 45.3433 -0.00962006 44.9892 0.00100515C44.0844 0.0275682 43.1779 0.0249119 42.274 0.00189058C41.9553 -0.00607832 41.8933 0.105486 41.8987 0.394138C41.9155 1.29905 41.8916 2.20485 41.9119 3.10976C41.919 3.41878 41.8225 3.49581 41.5251 3.48961C40.6584 3.47102 39.7917 3.49581 38.925 3.47633C38.624 3.46925 38.5337 3.55337 38.5399 3.85884C38.5602 4.74427 38.5301 5.63148 38.5558 6.51691C38.5656 6.864 38.4868 6.97025 38.1185 6.96671C36.0965 6.94546 34.0736 6.94369 32.0516 6.9676C31.6497 6.97203 31.5869 6.8339 31.5939 6.48061C31.6125 5.4845 31.5957 4.48838 31.5931 3.49227C30.5794 3.48961 29.5649 3.4967 28.5503 3.47722C28.2476 3.47102 28.1165 3.51883 28.1201 3.87124C28.1378 5.93076 28.1342 7.98939 28.1227 10.0489C28.121 10.342 28.1882 10.4456 28.4999 10.4376C29.3462 10.4155 30.1943 10.4518 31.0397 10.4208C31.4656 10.4049 31.6364 10.4881 31.6152 10.9671C31.5727 11.903 31.6072 12.8416 31.6099 13.7792H31.5931V13.7952C30.5785 13.7925 29.5649 13.8005 28.5503 13.781C28.2476 13.7757 28.1192 13.8235 28.1201 14.1759C28.136 18.6358 28.1342 23.0958 28.1369 27.5566H28.1201V27.5734C25.9706 27.5708 23.8211 27.5743 21.6717 27.5584C21.3636 27.5557 21.2857 27.6469 21.2919 27.9444C21.3105 28.8484 21.3096 29.7533 21.2919 30.6574C21.2866 30.9522 21.3592 31.0541 21.6708 31.0461C22.5162 31.0239 23.3643 31.0603 24.2098 31.0293C24.6374 31.0133 24.8047 31.0983 24.7843 31.5765C24.7436 32.5513 24.7764 33.5271 24.779 34.5037H24.7631V34.5205C22.4463 34.5285 20.1295 34.5365 17.8118 34.5435C17.8162 35.5211 17.7915 36.5004 17.8384 37.4761C17.8605 37.9392 17.6958 37.9976 17.2904 37.9941C15.0728 37.9746 12.8542 37.9852 10.6366 37.9852C7.43451 37.9852 4.23332 37.9861 1.03125 37.9835C0.777171 37.9835 0.562047 37.9339 0.566473 38.3421C0.588605 40.3865 0.582408 42.431 0.570015 44.4755C0.568244 44.765 0.665625 44.8261 0.932096 44.8217C1.81915 44.8066 2.70709 44.8385 3.59326 44.8057C3.9881 44.7907 4.06512 44.9253 4.05804 45.2883C4.03679 46.2853 4.05538 47.2823 4.05804 48.2802C7.34864 48.2828 10.6375 48.2802 13.9281 48.2988C14.3034 48.3014 14.3698 48.1845 14.3601 47.8445C14.3362 46.9972 14.3265 46.148 14.3636 45.3016C14.3813 44.8819 14.2459 44.8022 13.8528 44.8066C11.8866 44.8279 9.92128 44.8057 7.95506 44.8252C7.59475 44.8287 7.5018 44.7358 7.5133 44.3798C7.54075 43.4944 7.53455 42.6063 7.51507 41.72C7.50888 41.4189 7.59298 41.3348 7.89752 41.3357C11.0775 41.3472 14.2574 41.349 17.4373 41.3339C17.7923 41.3322 17.8375 41.4641 17.8313 41.766C17.8136 42.6329 17.8402 43.5006 17.818 44.3674C17.8101 44.7004 17.8641 44.8305 18.2465 44.8261C20.419 44.8022 22.5915 44.8102 24.7631 44.8075V44.8243H24.779V48.2811H24.7631V48.2979C22.5924 48.2952 20.4216 48.3023 18.2509 48.2793C17.8764 48.2757 17.8162 48.3926 17.818 48.7326C17.8304 51.8724 17.8313 55.0112 17.818 58.151C17.8162 58.4928 17.8791 58.607 18.2518 58.6034C20.4225 58.5804 22.5924 58.5884 24.7631 58.5857V58.6017H24.7799C24.7772 59.5774 24.7436 60.5549 24.7843 61.5289C24.8047 62.0079 24.6365 62.092 24.2098 62.0761C23.3643 62.0451 22.5162 62.0814 21.6708 62.0593C21.3592 62.0513 21.2857 62.1523 21.2919 62.4471C21.3105 63.3131 21.3211 64.1799 21.2883 65.045C21.2733 65.4461 21.376 65.555 21.7868 65.5514C23.8973 65.5311 26.0078 65.547 28.1192 65.5497C28.1227 66.5236 28.1458 67.4985 28.1183 68.4716C28.1077 68.8435 28.2263 68.9161 28.5689 68.9063C29.433 68.8816 30.2979 68.9143 31.1619 68.8895C31.5063 68.8798 31.6214 68.955 31.6116 69.3243C31.5851 70.3363 31.6072 71.3501 31.6099 72.3622C33.7806 72.3649 35.9513 72.3728 38.122 72.3649C38.4204 72.364 38.5673 72.3967 38.5567 72.7571C38.5293 73.6611 38.5337 74.5669 38.5549 75.4718C38.562 75.7835 38.462 75.857 38.1672 75.8508C37.3005 75.8331 36.4329 75.8685 35.5671 75.834C35.1607 75.818 35.0589 75.9296 35.0643 76.336C35.0873 78.2813 35.0643 80.2266 35.0837 82.1719C35.0882 82.5597 35.0182 82.7049 34.5933 82.6863C33.7478 82.6492 32.8988 82.689 32.0516 82.6686C31.7241 82.6607 31.578 82.7067 31.5913 83.0945C31.6249 84.1084 31.6072 85.1239 31.6099 86.1395C33.7806 86.1431 35.9513 86.1511 38.1229 86.1431C38.4213 86.1413 38.5673 86.1758 38.5567 86.5344C38.5293 87.4394 38.5337 88.346 38.5549 89.2501C38.5629 89.5635 38.4602 89.6344 38.1663 89.629C37.2801 89.6104 36.394 89.6414 35.5087 89.6131C35.1484 89.6016 35.0625 89.7008 35.0651 90.0567C35.0846 92.041 35.0828 94.0252 35.0669 96.0095C35.0643 96.3477 35.1236 96.4672 35.4989 96.4628C37.6316 96.4398 39.7642 96.4469 41.8969 96.4442V96.4611H41.9128C41.9102 97.4935 41.9199 98.525 41.8969 99.5565C41.8898 99.8717 41.996 99.9381 42.2864 99.9328C43.1894 99.916 44.0933 99.916 44.9954 99.9328C45.2858 99.9381 45.392 99.8717 45.3849 99.5565C45.3619 98.525 45.3725 97.4935 45.3699 96.4611H45.3858V96.4442C46.3631 96.4469 47.3405 96.4708 48.317 96.4433C48.726 96.4318 48.888 96.5027 48.8632 96.9631C48.8189 97.8087 48.8632 98.6587 48.8437 99.5061C48.8375 99.8115 48.8906 99.9452 49.2412 99.9355C50.1469 99.9089 51.0534 99.9107 51.9581 99.9346C52.2839 99.9435 52.33 99.8195 52.3291 99.5379C52.3185 97.5147 52.3167 95.4915 52.3308 93.4674C52.3335 93.1566 52.237 93.0831 51.9422 93.0893C51.0375 93.107 50.1309 93.0822 49.2253 93.1026C48.919 93.1097 48.8366 93.0176 48.8437 92.7174C48.8632 91.8506 48.8269 90.982 48.8605 90.116C48.8765 89.7105 48.7676 89.6069 48.3595 89.6113C46.3561 89.6352 44.3518 89.614 42.3475 89.6299C42.0067 89.6326 41.8809 89.5706 41.8942 89.1961C41.9261 88.3301 41.9305 87.4606 41.8933 86.5947C41.8756 86.1812 42.0403 86.1325 42.3856 86.1422C43.1752 86.1635 43.9667 86.1209 44.7555 86.159C45.2309 86.1829 45.4327 86.0988 45.3929 85.5543C45.3344 84.768 45.4106 83.9729 45.3645 83.1857C45.338 82.7253 45.5018 82.6545 45.9108 82.666C46.8872 82.6934 47.8655 82.6695 48.8428 82.6669V82.6837H48.8588C48.8561 83.7135 48.8641 84.7432 48.8437 85.773C48.8375 86.0749 48.9225 86.1617 49.2253 86.1555C50.2549 86.1342 51.2853 86.1431 52.3158 86.1404V86.1572H52.3317C52.3291 87.187 52.337 88.2168 52.3167 89.2465C52.3105 89.5476 52.3955 89.6352 52.6982 89.629C53.6898 89.6078 54.6813 89.6166 55.6728 89.614V89.6299H55.6896C55.687 92.9361 55.6879 96.2423 55.6746 99.5486C55.6728 99.8469 55.7489 99.9408 56.0552 99.9337C56.9591 99.9134 57.8648 99.908 58.7695 99.9355C59.1307 99.947 59.1661 99.7982 59.1599 99.4999C59.1413 98.7304 59.1927 97.9574 59.1405 97.1906C59.1015 96.6133 59.2352 96.3955 59.8629 96.4371C60.7774 96.4974 61.6989 96.4486 62.6179 96.4442C62.6205 95.4508 62.6099 94.4573 62.6347 93.4647C62.6418 93.1486 62.5329 93.084 62.2443 93.0893C61.3608 93.1061 60.4764 93.0787 59.5937 93.1035C59.2485 93.1132 59.1343 93.038 59.1431 92.6687C59.1697 91.6567 59.1475 90.6429 59.1449 89.6299H59.1617V89.614C60.1922 89.6166 61.2218 89.6087 62.2514 89.629C62.5532 89.6352 62.6391 89.5493 62.6338 89.2474C62.6125 88.2168 62.6214 87.187 62.6187 86.1572H62.6347V86.1404C63.7864 86.1457 64.9391 86.1519 66.0908 86.1581C66.0935 87.1516 66.12 88.1459 66.0882 89.1385C66.0749 89.5555 66.2059 89.6352 66.5981 89.6317C68.706 89.614 70.8129 89.6282 72.9208 89.6317C72.9235 90.6269 72.9394 91.6204 72.9226 92.6156C72.9173 92.9592 72.9633 93.1088 73.375 93.1061C76.6576 93.084 79.9402 93.0902 83.2237 93.0867C83.2264 92.0711 83.2096 91.0564 83.2432 90.0425C83.2565 89.6583 83.1149 89.606 82.7846 89.6149C81.9569 89.637 81.1283 89.6104 80.3005 89.6282C80.0022 89.6344 79.8552 89.5963 79.8668 89.2368C79.8942 88.3328 79.8889 87.427 79.8685 86.522C79.8605 86.2122 79.9588 86.1404 80.2554 86.1422C82.2765 86.1546 84.2985 86.1581 86.3205 86.1395C86.6781 86.1369 86.718 86.2741 86.7118 86.5734C86.695 87.4402 86.7197 88.3071 86.6985 89.173C86.6905 89.5024 86.7401 89.6459 87.1252 89.6326C88.1397 89.5989 89.1543 89.6166 90.1697 89.614V82.6837H90.1865V82.6678C93.4745 82.6704 96.7615 82.6669 100.049 82.6846C100.409 82.6864 100.503 82.596 100.491 82.2401C100.463 81.3936 100.47 80.5445 100.489 79.698C100.495 79.4014 100.419 79.3031 100.109 79.3102C99.243 79.3323 98.3745 79.296 97.5096 79.3279C97.1156 79.3421 96.9935 79.2526 96.9979 78.8338C97.0191 76.6831 97.0032 74.5306 97.0006 72.379H97.0174V72.3631C98.0487 72.3657 99.081 72.356 100.112 72.379C100.427 72.3861 100.494 72.2807 100.488 71.9894C100.471 71.0863 100.471 70.1831 100.488 69.28C100.493 68.9905 100.428 68.8833 100.113 68.8904C99.081 68.9134 98.0496 68.9037 97.0174 68.9063V68.8895H97.0006C97.0032 67.8961 96.9935 66.9026 97.0165 65.91C97.0236 65.5948 96.9173 65.5284 96.627 65.5337C95.7629 65.5514 94.898 65.5514 94.034 65.5337C93.7436 65.5284 93.6365 65.5948 93.6444 65.91C93.6674 66.9026 93.6568 67.8961 93.6595 68.8895H93.6435V68.9063C90.3361 68.9037 87.0278 68.8922 83.7204 68.9081C83.3079 68.9108 83.2184 68.7992 83.2229 68.4008C83.245 66.436 83.2229 64.4712 83.2415 62.5064C83.2441 62.1585 83.1697 62.0557 82.8032 62.0575C79.5153 62.077 76.2265 62.0726 72.9376 62.0761V62.0593H72.9217C72.9243 61.0269 72.9146 59.9953 72.9376 58.9629C72.9447 58.6486 72.8385 58.5822 72.5481 58.5875C71.6646 58.6043 70.7793 58.5769 69.8967 58.6017C69.5514 58.6114 69.4372 58.5361 69.4469 58.166C69.4735 57.154 69.4514 56.141 69.4487 55.1281H69.4647V55.1113C72.7703 55.1139 76.0768 55.1255 79.3825 55.1104C79.7853 55.1086 79.903 55.2016 79.8862 55.6107C79.8517 56.4571 79.8924 57.3054 79.8676 58.1519C79.857 58.4963 79.9314 58.607 80.3023 58.6034C82.4341 58.5804 84.565 58.5875 86.6967 58.5848V55.1281H86.7135ZM45.3699 96.4487C45.2371 96.3371 45.0812 96.284 44.9104 96.2795C44.0641 96.2565 43.2177 96.2565 42.3723 96.2795C42.2005 96.284 42.0447 96.3371 41.9128 96.4487V96.4442C41.9358 96.4185 41.9589 96.3938 41.9819 96.3681C42.0996 96.1343 42.0766 95.8811 42.0793 95.6332C42.0846 95.0381 42.0899 94.4431 42.0784 93.8481C42.0713 93.432 42.2457 93.2575 42.6627 93.2682C43.2186 93.2832 43.7755 93.2708 44.3323 93.2717C45.191 93.2735 45.1804 93.2815 45.207 94.1359C45.2291 94.8797 45.099 95.6314 45.3008 96.3672L45.3699 96.4442V96.4487ZM90.1697 82.6678C90.1431 82.643 90.1166 82.6191 90.0891 82.5952C89.8554 82.4774 89.6022 82.4986 89.3535 82.496C88.7373 82.4898 88.1211 82.4845 87.5059 82.496C87.0703 82.5048 86.8826 82.3331 86.8844 81.8859C86.8915 80.1345 86.8959 78.3831 86.8826 76.6318C86.8791 76.1846 87.0553 76.0111 87.4952 76.0217C88.1495 76.0359 88.8037 76.0332 89.4579 76.0217C90.2334 76.0075 90.3459 75.8906 90.3574 75.0982C90.3662 74.5404 90.3574 73.9825 90.36 73.4238C90.3645 72.5747 90.383 72.5712 91.2338 72.5472C92.0191 72.5251 92.8078 72.6464 93.586 72.4614C93.4408 72.6995 93.4683 72.9758 93.4674 73.2432C93.463 74.8618 93.4656 76.4812 93.4656 78.0998C93.4656 78.7857 93.1313 79.1293 92.4626 79.1304C91.942 79.1304 91.4215 79.1216 90.9018 79.1349C90.1502 79.1535 90.0139 79.2827 89.9971 80.0097C89.982 80.6835 89.9891 81.3582 89.9962 82.0329C89.9988 82.2605 90.0165 82.4836 90.1732 82.6669H90.1697V82.6678ZM93.6595 68.9037C93.8082 69.0294 93.987 69.0728 94.1765 69.0763C94.9458 69.0914 95.7151 69.0914 96.4844 69.0763C96.6739 69.0728 96.8518 69.0294 97.0006 68.9037V68.9063C96.9767 68.9347 96.9519 68.963 96.9271 68.9913C96.735 70.0158 96.8377 71.0473 96.8642 72.0762C96.8669 72.186 96.935 72.2781 97.0041 72.3631H97.0006C96.9722 72.3383 96.9439 72.3135 96.9156 72.2896C95.9302 72.0939 94.937 72.2028 93.9463 72.2267C93.8711 72.2285 93.8047 72.2613 93.7418 72.3038C93.8782 71.1979 93.8897 70.0937 93.7303 68.9887C93.7064 68.9612 93.6834 68.9338 93.6595 68.9063V68.9037ZM76.5761 47.0698C76.5584 46.3358 76.6903 45.5929 76.4761 44.8704C76.608 44.958 76.7594 44.9917 76.9205 44.9943C77.7368 45.0094 78.5539 45.012 79.3701 44.9926C79.548 44.9881 79.7233 44.9633 79.8676 44.8482V48.2563C79.6782 48.1155 79.4524 48.1181 79.2311 48.1137C78.6946 48.104 78.1573 48.1102 77.6208 48.1102C76.5832 48.1084 76.6009 48.1084 76.5761 47.0698ZM93.6435 48.2837C93.4452 48.1146 93.2027 48.1075 92.9592 48.1057C92.2519 48.1004 91.5454 48.0987 90.8381 48.1066C90.6123 48.1093 90.3813 48.111 90.1865 48.2554C90.1839 46.0985 90.1892 43.9407 90.1706 41.7829C90.1679 41.4402 90.2334 41.3215 90.6053 41.3331C91.6083 41.364 92.6131 41.3481 93.617 41.3508C93.4408 41.604 93.47 41.8962 93.4692 42.1795C93.4647 43.9398 93.4656 45.7009 93.4683 47.462C93.4691 47.7099 93.4523 47.9614 93.5701 48.1943C93.5949 48.2226 93.6196 48.2518 93.6435 48.2802V48.2837ZM86.7011 31.0461C86.6321 31.132 86.5648 31.2241 86.5577 31.3338C86.4869 32.2928 86.4843 33.2535 86.5577 34.2115C86.5878 34.6064 86.9048 34.6834 87.2314 34.6914C88.0388 34.7109 88.8462 34.7047 89.6527 34.6941C90.1263 34.6888 90.3556 34.4559 90.3609 33.9831C90.3715 33.1764 90.376 32.3689 90.3591 31.5623C90.3556 31.3728 90.3096 31.1948 90.1839 31.0461H90.1874C90.2148 31.0709 90.2423 31.0957 90.2706 31.1196C90.5043 31.2373 90.7575 31.217 91.0063 31.2196C91.6216 31.2249 92.2368 31.232 92.8521 31.2196C93.2939 31.2099 93.4762 31.3958 93.47 31.835C93.4612 32.4885 93.4576 33.1428 93.4736 33.7962C93.4904 34.5427 93.6196 34.6764 94.35 34.6905C95.0228 34.7047 95.6956 34.6985 96.3685 34.6923C96.5942 34.6896 96.8191 34.6755 97.0006 34.5188V34.5214C96.9767 34.5489 96.9519 34.5763 96.928 34.6038C96.796 34.8765 96.8288 35.1695 96.8279 35.4555C96.8244 36.9953 96.827 38.5351 96.8261 40.0749C96.8261 40.7985 96.4549 41.1607 95.7125 41.1613C95.2503 41.1613 94.7891 41.1551 94.327 41.1648C94.0942 41.1701 93.8551 41.1604 93.6595 41.3136C93.6568 40.344 93.6436 39.3754 93.6586 38.4058C93.663 38.1003 93.6108 37.9746 93.2611 37.9773C91.201 37.995 89.1401 37.9923 87.0801 37.979C86.7746 37.9773 86.6923 38.0649 86.6994 38.3642C86.718 39.2301 86.6941 40.0979 86.7127 40.9638C86.7189 41.2604 86.6427 41.3587 86.3329 41.3508C85.4476 41.3295 84.5614 41.3596 83.6761 41.3357C83.3353 41.326 83.2087 41.3933 83.2229 41.7687C83.2547 42.6346 83.2184 43.5024 83.2397 44.3683C83.2485 44.6986 83.1981 44.8411 82.813 44.827C81.8462 44.7942 80.8769 44.8102 79.9092 44.8084C80.0535 44.6145 80.058 44.3851 80.0589 44.1594C80.0659 42.3097 80.0668 40.4609 80.0589 38.6112C80.058 38.3996 80.0473 38.1862 79.9181 38.0021C79.9154 37.9994 79.9119 37.9967 79.9092 37.9941C80.8751 37.9914 81.8409 37.979 82.8077 37.9923C83.1025 37.9959 83.2538 37.9657 83.2432 37.6036C83.2149 36.7013 83.2149 35.7973 83.2432 34.8951C83.2538 34.532 83.1025 34.5028 82.8077 34.5064C81.84 34.5196 80.8733 34.5064 79.9066 34.5046C80.0721 34.285 80.0518 34.022 80.0562 33.7679C80.0642 33.172 80.0553 32.5761 80.0597 31.9802C80.0659 31.2666 80.1005 31.2258 80.806 31.2232C82.4589 31.2179 84.1117 31.2241 85.7645 31.2196C86.0514 31.2187 86.3435 31.2515 86.6153 31.1196C86.6427 31.0948 86.6702 31.0709 86.6976 31.047H86.702L86.7011 31.0461ZM76.4106 34.517C76.5921 34.6719 76.8134 34.6932 77.04 34.695C77.7863 34.7012 78.5335 34.7047 79.2798 34.6923C79.4861 34.6896 79.6932 34.6781 79.8676 34.5453V37.9578C79.6755 37.8055 79.4392 37.8152 79.2108 37.8108C78.6327 37.8002 78.0546 37.8081 77.4765 37.8064C76.5885 37.8028 76.6009 37.7984 76.5761 36.8997C76.5549 36.1329 76.6842 35.3599 76.4814 34.6011C76.4575 34.5745 76.4336 34.5471 76.4106 34.5205V34.517ZM69.4655 34.5196C69.4939 34.5444 69.5213 34.5692 69.5496 34.5931C70.5748 34.7862 71.6062 34.6834 72.6349 34.6569C72.7446 34.6542 72.8367 34.586 72.9217 34.517V34.5205C72.8978 34.5471 72.8739 34.5728 72.8509 34.5993C72.649 35.3183 72.7738 36.0523 72.7579 36.7784C72.7349 37.8064 72.7517 37.7878 71.7053 37.8143C70.9723 37.8329 70.2295 37.6948 69.5063 37.917C69.5868 37.7984 69.6267 37.6647 69.6302 37.5177C69.6532 36.6712 69.6532 35.8257 69.6302 34.9792C69.6258 34.8074 69.5727 34.6516 69.4611 34.5196H69.4655ZM31.7772 21.5108C31.763 21.0531 31.9737 20.9034 32.4004 20.9114C33.052 20.9238 33.7045 20.9212 34.3569 20.9105C34.603 20.907 34.8589 20.9256 35.066 20.7627V24.1769C34.8482 24.014 34.588 24.0343 34.3365 24.0299C33.6841 24.0211 33.0316 24.0157 32.3801 24.0299C31.9321 24.0396 31.7648 23.8475 31.7781 23.4092C31.7967 22.777 31.7976 22.143 31.7772 21.5108ZM55.1027 13.9625C55.7047 13.943 55.8366 13.804 55.8578 13.1887C55.8808 12.5334 55.8755 11.8773 55.8623 11.223C55.8543 10.7741 56.0499 10.6032 56.4855 10.6129C57.0822 10.6253 57.6806 10.6067 58.2773 10.6182C58.8926 10.6306 58.9528 10.6988 58.9669 11.339C58.9811 11.9942 58.9554 12.6494 58.982 13.3046C58.9988 13.7235 59.2095 13.9386 59.6291 13.959C59.8602 13.9705 60.0913 13.9714 60.3223 13.9723C61.961 13.9732 63.5988 13.9652 65.2374 13.9767C65.8323 13.9811 65.8952 14.0528 65.9111 14.6505C65.9244 15.1517 65.9164 15.6528 65.9147 16.154C65.9111 17.0615 65.8978 17.0731 64.9648 17.0757C64.8293 17.0766 64.6947 17.0757 64.5593 17.0757C59.6637 17.0757 54.7689 17.0739 49.8733 17.0793C49.5289 17.0793 49.1624 17.0075 48.8623 17.2537C48.8614 17.2546 48.8605 17.2555 48.8588 17.2563V17.2537H48.8561C48.8561 17.2537 48.8579 17.2519 48.8588 17.251C49.0783 16.9907 49.0314 16.6737 49.0323 16.3718C49.0394 14.6762 49.0279 12.9797 49.0394 11.2832C49.0438 10.6846 49.1093 10.628 49.7113 10.6174C50.2894 10.6076 50.8675 10.6076 51.4456 10.6174C52.0573 10.6289 52.1184 10.6855 52.1343 11.2735C52.152 11.9092 52.121 12.5458 52.1476 13.1816C52.1733 13.7934 52.3114 13.9395 52.9063 13.9616C53.6384 13.9891 54.3714 13.9864 55.1027 13.9625ZM66.2812 21.4374C66.2821 21.0752 66.4423 20.9114 66.8061 20.9141C67.4613 20.9176 68.1164 20.9203 68.7715 20.9132C69.1486 20.9096 69.2805 21.092 69.2779 21.4462C69.2725 22.1209 69.2699 22.7956 69.2787 23.4703C69.2841 23.8599 69.1203 24.0317 68.729 24.0281C68.0925 24.0237 67.4559 24.0219 66.8203 24.0308C66.5786 24.0343 66.3299 24.0211 66.1316 24.1822C66.1112 24.1973 66.0917 24.215 66.0731 24.2353C66.0714 24.2371 66.0687 24.2398 66.0669 24.2415C65.958 24.3637 65.9306 24.5169 65.9271 24.671C65.9049 25.4785 65.9058 26.2851 65.9253 27.0926C65.9288 27.2449 65.9651 27.3875 66.0483 27.5132C65.8341 27.3742 65.5862 27.3875 65.3419 27.3848C64.6912 27.3786 64.0405 27.3742 63.3898 27.3857C62.9791 27.3928 62.7958 27.2316 62.8064 26.8111C62.8197 26.2568 62.8153 25.7007 62.8064 25.1464C62.8011 24.8383 62.8569 24.5151 62.6542 24.2433C62.6462 24.2318 62.6373 24.2203 62.6285 24.2097C62.6152 24.1973 62.601 24.1866 62.5869 24.176C62.3718 24.0131 62.1133 24.0326 61.8618 24.0299C61.2262 24.0237 60.5914 24.0184 59.9567 24.0299C59.5291 24.0379 59.3158 23.8865 59.329 23.4287C59.3476 22.7744 59.3423 22.12 59.3308 21.4657C59.3237 21.077 59.4795 20.9052 59.8752 20.9114C60.5481 20.9212 61.2218 20.9203 61.8955 20.9114C62.2877 20.9061 62.4497 21.0788 62.447 21.4657C62.4435 22.1395 62.4408 22.8133 62.4497 23.4862C62.4532 23.728 62.4399 23.9768 62.601 24.1751C62.617 24.1946 62.6347 24.2141 62.6542 24.2327C62.6559 24.2344 62.6586 24.2371 62.6604 24.2389C62.7816 24.3469 62.933 24.3752 63.0853 24.3797C63.9245 24.4018 64.7638 24.3991 65.6022 24.3814C65.7695 24.3779 65.9341 24.3487 66.0687 24.2344C66.0731 24.2318 66.0776 24.2274 66.082 24.2238C66.1006 24.2043 66.1174 24.1849 66.1316 24.1645C66.2883 23.9573 66.2732 23.7058 66.2767 23.4606C66.2847 22.7859 66.2794 22.1112 66.2812 21.4365V21.4374ZM52.1449 4.20416C52.1352 4.89745 52.1423 5.59163 52.1423 6.28493C52.1414 6.62316 51.9909 6.77457 51.6527 6.77457C50.9595 6.77457 50.2655 6.76838 49.5714 6.77812C49.1704 6.78343 49.027 6.59217 49.0296 6.21321C49.0349 5.55799 49.034 4.90188 49.0296 4.24666C49.027 4.00139 49.0429 3.74993 48.9013 3.53389C49.1182 3.67467 49.3696 3.65873 49.6148 3.66139C50.2699 3.6667 50.925 3.66759 51.5801 3.66227C51.959 3.65873 52.152 3.80217 52.1458 4.20416H52.1449ZM31.6099 13.7952C31.6382 13.82 31.6665 13.8456 31.6949 13.8696C31.817 13.9351 31.9507 13.9608 32.0862 13.9616C35.1723 13.982 38.2592 13.9838 41.3453 13.959C41.9119 13.9546 42.05 13.7899 42.0793 13.2143C42.1093 12.6176 42.0846 12.019 42.0908 11.4204C42.0987 10.6661 42.1386 10.6244 42.8645 10.6165C43.3275 10.612 43.7905 10.6147 44.2535 10.6165C45.1795 10.6191 45.1893 10.6271 45.191 11.5506C45.1954 13.2294 45.1786 14.9073 45.199 16.5861C45.2078 17.2891 45.3557 17.4263 46.0613 17.4423C46.7748 17.4582 47.4892 17.4502 48.2028 17.444C48.4303 17.4414 48.6551 17.4263 48.8393 17.2705L48.8419 17.2679V17.2705H48.8446C48.8446 17.2705 48.8428 17.2714 48.8419 17.2723C48.8366 17.2767 48.8313 17.2811 48.826 17.2864C48.633 17.5149 48.6649 17.7938 48.6649 18.0603C48.6605 20.9539 48.6605 23.8475 48.664 26.7411C48.6649 27.0218 48.6392 27.3113 48.818 27.5575H45.4168C45.407 27.546 45.3964 27.5353 45.3858 27.5265C45.3831 25.4094 45.3725 23.2923 45.3858 21.1753C45.3876 20.8326 45.322 20.7148 44.9511 20.7246C43.9499 20.752 42.9468 20.7308 41.9447 20.7272C41.9358 20.7148 41.9243 20.7042 41.9128 20.6945C41.9093 19.6922 41.888 18.6899 41.9146 17.6884C41.9243 17.3192 41.8101 17.2422 41.4649 17.2537C40.6398 17.2794 39.812 17.2794 38.9869 17.2537C38.6417 17.2422 38.5275 17.3192 38.5372 17.6884C38.5638 18.6907 38.5425 19.6948 38.539 20.698C38.5284 20.7069 38.5186 20.7166 38.5089 20.7272H35.1076C35.1076 20.7272 35.1121 20.7237 35.1147 20.721C35.244 20.5378 35.2519 20.3244 35.2546 20.1136C35.2634 19.384 35.2705 18.6544 35.2528 17.9257C35.2369 17.2351 35.0952 17.1014 34.3852 17.0819C33.7142 17.0642 33.0414 17.0704 32.3703 17.0784C31.9604 17.0828 31.7754 16.9216 31.7834 16.5002C31.7958 15.8476 31.7905 15.1951 31.7843 14.5425C31.7816 14.2804 31.7922 14.013 31.6063 13.7961H31.6099V13.7952ZM28.1369 27.5734C28.1661 27.5982 28.1944 27.623 28.2237 27.6478C28.3644 27.7222 28.5176 27.7425 28.6716 27.7434C30.6157 27.7558 32.5589 27.7549 34.503 27.7434C34.7013 27.7416 34.9014 27.7266 35.066 27.5973C35.0687 29.756 35.0643 31.9129 35.0828 34.0716C35.0855 34.4143 35.0191 34.5329 34.6482 34.5214C33.6443 34.4904 32.6395 34.5064 31.6338 34.5037C31.7745 34.3178 31.7781 34.0946 31.7816 33.8759C31.7922 33.1623 31.7967 32.4486 31.7816 31.7358C31.7666 31.0089 31.6267 30.8752 30.8813 30.8575C30.2448 30.8433 29.6082 30.8628 28.9726 30.8504C28.3759 30.838 28.3246 30.784 28.3157 30.173C28.3069 29.5559 28.3175 28.9396 28.3113 28.3225C28.3095 28.0604 28.3202 27.7912 28.1342 27.5734H28.1369ZM28.892 65.3628C28.6468 65.3646 28.3945 65.3487 28.1785 65.4912C28.3202 65.2752 28.3042 65.0228 28.306 64.7767C28.3122 64.1215 28.3122 63.4662 28.3078 62.811C28.3042 62.4321 28.4476 62.2399 28.8496 62.2452C29.5427 62.2559 30.2368 62.2479 30.9309 62.2488C31.2682 62.2488 31.4195 62.3993 31.4195 62.7375C31.4204 63.4317 31.4133 64.125 31.4231 64.8192C31.4293 65.2203 31.2372 65.3646 30.8583 65.3611C30.2032 65.3566 29.5472 65.3566 28.892 65.3628ZM66.8637 85.9713C66.6167 85.974 66.3653 85.958 66.1493 86.0997C66.2909 85.8837 66.275 85.6313 66.2776 85.3852C66.2829 84.7299 66.2838 84.0747 66.2785 83.4186C66.275 83.0396 66.4184 82.8475 66.8203 82.8537C67.4754 82.8643 68.1305 82.8564 68.7865 82.8572C69.1238 82.8572 69.2752 83.0078 69.2752 83.346C69.2761 84.0402 69.2681 84.7344 69.2787 85.4277C69.2849 85.8296 69.0928 85.9731 68.7139 85.9695C68.0969 85.9642 67.4798 85.9651 66.8637 85.9713ZM42.6706 68.716C42.2483 68.7213 42.0854 68.5371 42.0872 68.1254C42.0908 67.4312 42.0987 66.737 42.0793 66.0429C42.0669 65.5948 41.8491 65.3708 41.3993 65.3637C40.6469 65.3522 39.8944 65.3425 39.1428 65.3655C38.5363 65.3841 38.3991 65.5249 38.3726 66.1323C38.3433 66.807 38.3646 67.4826 38.3619 68.1573C38.3602 68.5442 38.192 68.7169 37.8024 68.7133C37.1659 68.7089 36.5285 68.6956 35.8929 68.7186C35.4122 68.7363 35.251 68.5274 35.2546 68.0652C35.2661 66.3483 35.2519 64.6315 35.2634 62.9146C35.267 62.332 35.3431 62.2665 35.9487 62.2541C36.5852 62.2408 37.2226 62.2629 37.8582 62.2452C38.5682 62.2266 38.7072 62.0903 38.7258 61.3934C38.7444 60.7373 38.7435 60.0812 38.7284 59.426C38.7169 58.9558 38.9126 58.7655 39.38 58.7752C40.0157 58.7876 40.6531 58.7947 41.2887 58.769C41.9234 58.7442 42.0624 58.6052 42.081 57.9615C42.1023 57.2098 42.0925 56.4571 42.0828 55.7045C42.0801 55.4965 42.0527 55.2946 41.9119 55.1299C41.9119 55.129 41.911 55.129 41.911 55.1281H41.9128C42.1191 55.3141 42.3758 55.2972 42.6255 55.3017C43.1071 55.3087 43.5895 55.3025 44.072 55.3043C45.2645 55.3087 45.1919 55.2432 45.1928 56.4518C45.1955 59.0949 45.1928 61.737 45.1937 64.38C45.1946 65.6984 45.2202 65.7223 46.565 65.7241C47.0661 65.725 47.568 65.7312 48.0691 65.7241C48.4754 65.7188 48.6675 65.8817 48.6667 66.3049C48.6631 68.0794 48.6675 69.8546 48.664 71.6291C48.6631 72.0151 48.4967 72.1895 48.1072 72.1869C47.4512 72.1816 46.7952 72.1763 46.1401 72.1886C45.7142 72.1966 45.5584 72.0027 45.5602 71.5945C45.5646 70.8809 45.5823 70.1672 45.5505 69.4535C45.5257 68.8816 45.3858 68.7443 44.8112 68.7222C44.0977 68.6956 43.3833 68.708 42.6706 68.716ZM69.4629 79.0038C69.4664 79.2642 69.3797 79.327 69.1327 79.3235C68.227 79.3102 67.3205 79.3084 66.414 79.3235C66.1528 79.3279 66.0855 79.2411 66.0944 78.9941C66.1121 78.5124 66.0997 78.0299 66.0997 77.5473C66.0997 77.0647 66.1147 76.6211 66.0935 76.1589C66.082 75.8968 66.1776 75.8358 66.4237 75.8393C67.3293 75.8526 68.2368 75.8543 69.1424 75.8393C69.4036 75.8349 69.4655 75.9234 69.462 76.1696C69.4496 77.1143 69.4478 78.06 69.4629 79.0047V79.0038ZM69.3655 68.9648C69.2655 69.2038 69.2832 69.4562 69.2814 69.7059C69.2761 70.3399 69.2725 70.9747 69.2814 71.6096C69.2876 72.0195 69.1238 72.2064 68.7015 72.1966C68.0677 72.1824 67.4329 72.1878 66.7982 72.1948C66.4317 72.1993 66.2741 72.0372 66.2767 71.676C66.2812 71.2342 66.29 70.7914 66.2732 70.3496C66.2555 69.8839 66.3538 69.4075 66.1776 68.955C66.3104 69.0418 66.4635 69.0737 66.6247 69.0763C67.3931 69.0914 68.1633 69.0914 68.9317 69.0763C69.0884 69.0737 69.2371 69.0436 69.3673 68.9621C69.3664 68.963 69.3664 68.9639 69.3655 68.9648ZM55.6693 65.0583C55.656 65.4797 55.7914 65.5638 56.1818 65.5497C57.0459 65.5196 57.9126 65.5532 58.7775 65.5328C59.0803 65.5266 59.1679 65.6125 59.1608 65.9162C59.1405 66.7423 59.175 67.5711 59.144 68.3963C59.1298 68.7868 59.2148 68.9232 59.6353 68.909C60.6198 68.878 61.606 68.9028 62.5913 68.9063C62.4364 69.1268 62.4479 69.3809 62.4452 69.6297C62.4381 70.2079 62.4461 70.787 62.4417 71.3652C62.4364 72.1479 62.4054 72.1842 61.6299 72.1851C58.8545 72.1895 56.0783 72.1887 53.3029 72.186C52.5318 72.1851 52.5097 72.1612 52.5088 71.3581C52.5061 69.1029 52.5079 66.8477 52.5079 64.5916C52.5079 64.0329 52.4991 63.4733 52.5115 62.9146C52.5238 62.3196 52.5796 62.2656 53.1878 62.2541C53.7659 62.2435 54.344 62.2567 54.9221 62.2488C55.1815 62.2443 55.4479 62.2647 55.6728 62.0982C55.6763 63.0846 55.702 64.0728 55.6693 65.0583ZM62.6347 62.0982C62.8587 62.2629 63.1242 62.2443 63.3819 62.2479C63.9768 62.2567 64.5717 62.2461 65.1675 62.2532C65.8642 62.2612 65.9111 62.3037 65.9138 63.0156C65.9191 64.6864 65.9129 66.3572 65.9173 68.028C65.9182 68.2945 65.889 68.5717 66.0359 68.8089C66.0244 68.8019 66.012 68.7957 65.9988 68.7904C64.9851 68.6443 63.9679 68.7239 62.9516 68.7452C62.8356 68.7479 62.7259 68.7877 62.6347 68.8647V62.0982ZM48.8419 79.3102C48.6383 79.126 48.3843 79.1446 48.139 79.1411C47.4857 79.1331 46.8315 79.1296 46.1781 79.1411C45.7514 79.149 45.5398 78.9976 45.5531 78.5399C45.5717 77.8873 45.5655 77.233 45.5549 76.5795C45.5487 76.1944 45.6992 76.0164 46.0967 76.0226C46.7695 76.0323 47.4423 76.0314 48.1142 76.0226C48.5029 76.0182 48.6737 76.1811 48.6711 76.5715C48.6675 77.2445 48.6649 77.9174 48.6737 78.5903C48.6773 78.8427 48.6596 79.1039 48.8437 79.3093V79.312C48.8437 79.312 48.8428 79.3102 48.8419 79.3102ZM59.1449 89.614C59.1183 89.5901 59.0909 89.5662 59.0643 89.5423C57.9657 89.3882 56.8679 89.3882 55.7711 89.544C55.7436 89.5671 55.7171 89.591 55.6896 89.614H55.6861C55.8268 89.4484 55.8596 89.2474 55.8623 89.0385C55.872 88.2681 55.8738 87.4978 55.8605 86.7275C55.8569 86.5265 55.8437 86.3237 55.7126 86.1572H59.1201C59.051 86.244 59.0077 86.345 59.0015 86.453C58.9439 87.3915 58.951 88.331 58.9953 89.2704C59.0024 89.4024 59.0679 89.513 59.1493 89.614H59.1449ZM62.6187 86.144C62.4532 86.0023 62.2522 85.9704 62.0433 85.9678C61.2731 85.958 60.502 85.9563 59.7318 85.9687C59.5309 85.9722 59.3281 85.9864 59.1617 86.1174C59.1591 85.1124 59.1467 84.1066 59.1599 83.1025C59.1635 82.8077 59.1343 82.6554 58.7713 82.666C57.8692 82.6943 56.9653 82.6943 56.0632 82.666C55.7002 82.6554 55.671 82.8077 55.6746 83.1025C55.6879 84.1057 55.6755 85.1116 55.6728 86.1156C55.5692 86.0351 55.4488 85.9952 55.3205 85.9881C54.4573 85.943 53.595 85.9536 52.7319 85.9819C52.5814 85.9864 52.4477 86.0475 52.3317 86.144V86.1404C52.3565 86.1112 52.3822 86.082 52.407 86.0528C52.6053 85.0266 52.5115 83.9941 52.4672 82.9644C52.4513 82.6031 52.1538 82.5119 51.8439 82.5022C51.0206 82.4765 50.1964 82.4854 49.3731 82.4977C49.1845 82.5004 49.0066 82.5438 48.8588 82.6695V82.6669C48.8836 82.6385 48.9083 82.6111 48.9322 82.5828C49.1182 81.5796 49.0358 80.5719 48.9827 79.5643C48.9774 79.4749 48.9163 79.4014 48.8596 79.3297C48.8588 79.3288 48.8579 79.327 48.857 79.3261H48.8596L48.8782 79.3447C49.0518 79.4997 49.2695 79.4944 49.4794 79.497C50.2124 79.5059 50.9454 79.5147 51.6784 79.4952C52.3432 79.4775 52.4796 79.3359 52.5008 78.6594C52.5212 78.0042 52.4964 77.3481 52.5115 76.692C52.5247 76.1014 52.5885 76.0421 53.1931 76.0314C53.7331 76.0217 54.2741 76.0226 54.8132 76.0305C55.424 76.0403 55.4798 76.0934 55.4931 76.6893C55.5064 77.2675 55.4931 77.8466 55.4984 78.4256C55.5064 79.3881 55.6082 79.497 56.5537 79.4997C58.2508 79.5059 59.9478 79.4988 61.6449 79.5032C62.3903 79.505 62.4381 79.5501 62.4408 80.2851C62.447 81.924 62.4408 83.5638 62.4443 85.2036C62.4452 85.4905 62.4134 85.7845 62.5462 86.0563C62.5709 86.0846 62.5948 86.1121 62.6187 86.1404V86.144ZM73.6937 89.444C73.4475 89.4466 73.197 89.4307 72.981 89.5715C73.1209 89.3546 73.1049 89.104 73.1076 88.8587C73.1138 88.2035 73.1138 87.5483 73.1085 86.893C73.1058 86.5141 73.2484 86.3211 73.6503 86.3273C74.3443 86.337 75.0375 86.3299 75.7316 86.3308C76.0698 86.3308 76.2212 86.4813 76.2212 86.8196C76.222 87.5137 76.2141 88.207 76.2247 88.9012C76.23 89.3023 76.0379 89.4458 75.659 89.4431C75.0039 89.4378 74.3488 89.4387 73.6937 89.444ZM76.3973 65.864C76.3938 65.6178 76.4557 65.524 76.7169 65.5346C77.1985 65.555 77.681 65.5399 78.1635 65.5399C78.6459 65.5399 79.0895 65.5523 79.5516 65.5355C79.7986 65.5258 79.8862 65.5939 79.8818 65.8543C79.8659 66.7609 79.8676 67.6676 79.8818 68.5743C79.8853 68.8205 79.8234 68.9081 79.5622 68.9037C78.6176 68.8886 77.6721 68.8904 76.7275 68.9028C76.4805 68.9063 76.3938 68.8444 76.3973 68.5832C76.4133 67.6774 76.4115 66.7707 76.3982 65.864H76.3973ZM73.3634 72.3622C74.9454 72.3834 76.5275 72.371 78.1095 72.371C79.6915 72.371 81.2345 72.3834 82.797 72.3622C83.1529 72.3569 83.2441 72.4454 83.2423 72.8049C83.2264 75.95 83.2264 79.095 83.2415 82.2392C83.2432 82.5952 83.1591 82.6864 82.7988 82.6846C79.6543 82.6686 76.5098 82.6695 73.3652 82.6846C73.0093 82.6864 72.919 82.6013 72.9208 82.2419C72.9367 79.0968 72.9359 75.9517 72.9208 72.8076C72.919 72.4516 73.0031 72.3569 73.3634 72.3622ZM72.9217 62.0761C72.8978 62.1027 72.873 62.1301 72.8491 62.1576C72.7181 62.4294 72.7508 62.7225 72.7508 63.0085C72.7464 64.6244 72.7508 66.2403 72.7482 67.8562C72.7464 68.6974 72.7269 68.6965 71.8655 68.7213C71.0838 68.7434 70.2942 68.6186 69.5195 68.8107C69.6674 68.5725 69.6382 68.2954 69.6391 68.028C69.6452 66.3182 69.6479 64.6076 69.6373 62.8978C69.6346 62.4383 69.794 62.2302 70.2738 62.247C70.8873 62.2682 71.5026 62.2559 72.1179 62.2497C72.3976 62.247 72.6862 62.2727 72.9217 62.0726V62.0761ZM69.4487 55.1148C69.2832 54.974 69.0831 54.9422 68.8742 54.9395C68.1438 54.9298 67.4126 54.9174 66.6822 54.9431C66.0882 54.9634 65.9474 55.1113 65.9226 55.7178C65.8943 56.4093 65.904 57.1026 65.9164 57.7942C65.9235 58.2342 65.75 58.421 65.3047 58.4104C64.6894 58.3945 64.0742 58.4007 63.4589 58.4086C62.5727 58.4202 62.4523 58.537 62.4417 59.403C62.4346 60.0378 62.4355 60.6727 62.4426 61.3076C62.4461 61.5661 62.4275 61.8344 62.5948 62.0593H55.702C55.9995 60.9224 55.8959 59.7793 55.7551 58.6362C55.7374 58.6087 55.7171 58.5848 55.6949 58.5645C56.7387 58.5751 57.7798 58.5733 58.8218 58.6008C59.1236 58.6079 59.1617 58.4857 59.1582 58.2307C59.144 57.1974 59.1484 56.1641 59.1449 55.1308L59.1422 55.1299C58.1268 55.1263 57.1114 55.1449 56.0969 55.1095C55.7056 55.0962 55.6693 55.2494 55.6737 55.5735C55.6879 56.5616 55.6719 57.5498 55.6666 58.5397C55.6427 58.5193 55.6161 58.5034 55.5869 58.4901C55.3072 58.3865 55.0159 58.4122 54.7282 58.4113C53.0895 58.4078 51.4518 58.4148 49.8131 58.4078C49.0819 58.4051 49.0411 58.3573 49.0349 57.61C49.0314 57.0708 49.0261 56.5306 49.0367 55.9914C49.0491 55.3902 49.1128 55.3229 49.7016 55.3079C50.3761 55.291 51.0507 55.322 51.7253 55.2946C52.3326 55.2689 52.4752 55.1299 52.4973 54.5296C52.5238 53.8177 52.5185 53.104 52.4999 52.3912C52.4831 51.7263 52.3494 51.6014 51.6589 51.5837C51.0038 51.5678 50.3487 51.5873 49.6936 51.5766C49.0934 51.566 49.0473 51.5173 49.0367 50.9019C49.0243 50.2086 49.0385 49.5145 49.0279 48.8212C49.0199 48.3466 48.7968 48.1155 48.3179 48.1102C47.6433 48.104 46.9687 48.1128 46.295 48.1048C45.6222 48.096 45.5673 48.0491 45.5637 47.3797C45.5558 45.6841 45.5637 43.9876 45.5593 42.2911C45.5584 41.9856 45.5929 41.6722 45.4522 41.3826C45.4407 41.3658 45.4292 41.3499 45.4159 41.3357C47.576 41.3375 49.7361 41.3304 51.8953 41.3525C52.2645 41.3561 52.3424 41.2489 52.3317 40.9027C52.3061 40.0563 52.3105 39.208 52.3308 38.3615C52.3379 38.0569 52.2485 37.9764 51.9466 37.9781C49.8866 37.9914 47.8265 37.9941 45.7665 37.9764C45.415 37.9737 45.3654 38.1021 45.3716 38.4067C45.3911 39.3718 45.3831 40.3387 45.3858 41.3047C45.3566 41.2773 45.3229 41.2551 45.284 41.2383C44.3668 41.0718 43.4417 41.1728 42.521 41.1692C41.8863 41.1666 41.7499 41.3233 41.7278 41.9661C41.7039 42.6391 41.7074 43.3138 41.7234 43.9876C41.7349 44.4577 41.5437 44.6401 41.0762 44.6348C39.9404 44.6216 38.8046 44.6278 37.6688 44.6313C36.9756 44.6339 36.2824 44.6162 35.5892 44.6428C35.2581 44.6552 34.9412 44.7446 34.9279 45.1378C34.8925 46.1728 34.7907 47.2114 34.9943 48.2412C35.0067 48.2616 35.0209 48.2802 35.0368 48.297C34.0329 48.2943 33.029 48.3014 32.0251 48.2837C31.7258 48.2784 31.5815 48.3174 31.5922 48.6751C31.6196 49.5782 31.6143 50.4831 31.5948 51.3872C31.5877 51.6909 31.6763 51.7759 31.9781 51.7697C32.8811 51.7502 33.7859 51.744 34.6889 51.7714C35.0483 51.7829 35.0855 51.6368 35.0802 51.3376C35.0625 50.3353 35.0696 49.3321 35.0669 48.3289C35.0944 48.3528 35.1253 48.374 35.1599 48.39C35.4387 48.4971 35.7309 48.4714 36.0195 48.4723C37.659 48.4758 39.2986 48.4696 40.9381 48.4758C41.6764 48.4785 41.7163 48.5192 41.7189 49.2683C41.7243 50.9276 41.7181 52.5869 41.7225 54.2462C41.7234 54.5428 41.6853 54.8519 41.8951 55.1069C41.896 55.1086 41.8978 55.1104 41.8995 55.1122H41.8969L41.8951 55.1104C41.7243 54.9563 41.5118 54.9422 41.2993 54.9413C39.4296 54.9333 37.5599 54.9236 35.6902 54.9466C35.0598 54.9546 34.9208 55.1113 34.8978 55.7532C34.8748 56.4076 34.9014 57.0637 34.8872 57.7198C34.8739 58.3263 34.8102 58.3927 34.225 58.406C33.6274 58.4184 33.029 58.3936 32.4323 58.414C31.9622 58.4299 31.7736 58.2386 31.7816 57.7685C31.794 57.0557 31.7949 56.342 31.7763 55.6293C31.7639 55.1848 31.5523 54.9528 31.1008 54.9448C30.2908 54.9315 29.4816 54.9369 28.6716 54.9422C28.198 54.9457 27.9625 55.1688 27.9528 55.6461C27.9395 56.2632 27.9483 56.8795 27.9448 57.4966C27.9386 58.3918 27.9262 58.3883 27.0471 58.4148C26.3194 58.4361 25.5829 58.305 24.864 58.5131C24.8366 58.5379 24.8082 58.5618 24.7799 58.5857H24.7764C24.9348 58.4033 24.949 58.1793 24.9508 57.9526C24.9578 57.2416 24.964 56.5289 24.9499 55.8179C24.9348 55.0892 24.7985 54.959 24.0522 54.9413C23.3989 54.9262 22.7446 54.9298 22.0904 54.9386C21.6469 54.9439 21.468 54.7518 21.4787 54.3135C21.4937 53.7557 21.4751 53.1979 21.484 52.64C21.4937 52.0167 21.5521 51.9609 22.1922 51.9485C22.8845 51.9344 23.5768 51.9618 24.2691 51.9326C24.6055 51.9193 24.9083 51.813 24.9189 51.4243C24.9463 50.4096 25.0561 49.3914 24.8516 48.3811C24.8268 48.3537 24.8029 48.3262 24.779 48.2979V48.2943C24.8339 48.3404 24.8914 48.3935 24.957 48.4024C25.9325 48.5325 26.9117 48.5015 27.8881 48.4227C28.1307 48.4041 28.2688 48.2155 28.2768 47.9862C28.3131 46.9511 28.4016 45.9152 28.221 44.8836C28.2068 44.8562 28.19 44.8305 28.1688 44.8084C29.1718 44.811 30.1748 44.804 31.1779 44.8217C31.4771 44.827 31.6214 44.788 31.6108 44.4303C31.5833 43.5272 31.5886 42.6222 31.609 41.7182C31.6152 41.4145 31.5275 41.3295 31.2248 41.3357C30.3218 41.3552 29.417 41.3614 28.514 41.3339C28.1546 41.3224 28.1174 41.4685 28.1227 41.7669C28.1404 42.7701 28.1342 43.7742 28.1369 44.7774C28.1139 44.7561 28.0891 44.7384 28.0608 44.7243C27.0657 44.5507 26.0662 44.6419 25.0685 44.6703C24.9578 44.6738 24.8649 44.7411 24.779 44.8119V44.8075C24.8038 44.78 24.8286 44.7526 24.8525 44.7252C25.0623 43.8123 24.9295 42.8861 24.941 41.967C24.949 41.3286 24.7905 41.1914 24.1522 41.1684C23.498 41.1445 22.8429 41.1684 22.1887 41.1586C21.5424 41.1489 21.492 41.0993 21.4822 40.4706C21.4751 39.9323 21.4751 39.3931 21.4822 38.8538C21.4911 38.2252 21.5398 38.1791 22.1887 38.1685C22.881 38.1579 23.5741 38.1827 24.2673 38.1552C24.6028 38.142 24.9074 38.0392 24.918 37.6479C24.9463 36.6323 25.0543 35.6132 24.8507 34.6029L24.779 34.5205V34.517C24.9614 34.6728 25.1836 34.6958 25.4111 34.6958C27.2773 34.702 29.1426 34.7056 31.0088 34.6932C31.2141 34.6923 31.4204 34.6772 31.5931 34.5453C31.5957 35.5521 31.6099 36.5597 31.5948 37.5664C31.5904 37.8737 31.6453 37.9967 31.9932 37.9932C34.0541 37.9764 36.1151 37.9781 38.176 37.9932C38.4894 37.9959 38.5594 37.8967 38.554 37.6036C38.5363 36.6987 38.5602 35.7929 38.5399 34.888C38.5337 34.5825 38.624 34.4993 38.925 34.5055C39.7917 34.525 40.6584 34.5002 41.5251 34.5196C41.8225 34.5258 41.919 34.4479 41.9119 34.1389C41.8916 33.234 41.8863 32.3273 41.9137 31.4233C41.9252 31.0603 41.7738 31.0266 41.4773 31.0337C40.669 31.0505 39.859 31.0177 39.0507 31.0487C38.6621 31.0638 38.5169 30.9823 38.5363 30.5582C38.5744 29.7507 38.5107 28.9379 38.5611 28.1321C38.593 27.623 38.4133 27.538 37.9547 27.5548C37.0066 27.5885 36.0558 27.561 35.1059 27.5575C35.3794 27.0625 35.2555 26.5224 35.2493 26.0044C35.2422 25.4076 35.3936 24.7923 35.1076 24.2167C36.1292 24.2141 37.1518 24.1999 38.1725 24.2158C38.4744 24.2203 38.5594 24.1353 38.5549 23.8333C38.539 22.8036 38.5532 21.7729 38.5549 20.7432H41.896C41.8987 22.8709 41.9093 24.9977 41.896 27.1254C41.8933 27.4689 41.9597 27.5858 42.3307 27.5761C43.3425 27.5495 44.3562 27.5716 45.369 27.5743C45.3716 29.7454 45.3787 31.9156 45.3707 34.0858C45.3699 34.3833 45.4 34.525 45.7611 34.5214C47.8212 34.5028 49.8813 34.5072 51.9422 34.5188C52.2361 34.5205 52.3379 34.4515 52.33 34.1407C52.3087 33.2358 52.3043 32.33 52.3317 31.425C52.3424 31.0664 52.1972 31.0275 51.8979 31.0328C51.0313 31.0505 50.1646 31.0248 49.2987 31.0461C48.9677 31.0549 48.826 31.0045 48.8393 30.6193C48.8729 29.6126 48.8561 28.6049 48.8579 27.5973C49.0624 27.7514 49.3076 27.7434 49.5457 27.7478C50.1052 27.7567 50.6647 27.7514 51.2242 27.7505C52.4504 27.7505 52.5052 27.6956 52.5079 26.4914C52.5106 24.8516 52.5141 23.2118 52.5044 21.5711C52.5017 21.1071 52.677 20.9008 53.1506 20.9176C53.6517 20.9353 54.1537 20.9185 54.6556 20.9212C55.471 20.9247 55.4913 20.9424 55.494 21.7685C55.4984 23.4854 55.4825 25.2031 55.5019 26.92C55.509 27.5982 55.6498 27.7275 56.3279 27.7461C57.022 27.7647 57.7169 27.7558 58.411 27.7505C58.8023 27.747 58.9696 27.9143 58.9669 28.3039C58.9616 28.9591 58.9608 29.6152 58.9669 30.2713C58.9705 30.6884 58.7863 30.8593 58.3729 30.8557C57.6789 30.8486 56.9839 30.8371 56.2898 30.8619C55.6737 30.884 55.5152 31.0195 55.5073 31.6163C55.4807 33.5457 55.4816 35.475 55.5064 37.4044C55.5143 37.9852 55.6693 38.1499 56.2279 38.1579C58.1764 38.1862 60.1258 38.1844 62.0734 38.1588C62.6365 38.1508 62.771 37.9914 62.8011 37.4106C62.8286 36.8705 62.81 36.3295 62.8109 35.7894C62.8135 34.6994 62.8126 34.7153 63.8785 34.6923C64.5876 34.6764 65.3047 34.803 66.005 34.594C66.0333 34.5692 66.0616 34.5444 66.09 34.5205H66.0944C66.0253 34.6064 65.958 34.6985 65.9501 34.8083C65.881 35.7681 65.881 36.7279 65.9501 37.6868C65.9757 38.0481 66.2564 38.1499 66.568 38.1614C67.3559 38.1889 68.1438 38.18 68.9317 38.1659C69.0893 38.1632 69.238 38.1313 69.369 38.049C69.3593 38.0649 69.3513 38.0817 69.3443 38.0994C69.1955 38.8237 69.2841 39.5551 69.2761 40.2829C69.2619 41.4685 69.3283 41.5252 70.4978 41.5279C72.1896 41.5305 73.8805 41.5349 75.5714 41.5243C76.0308 41.5217 76.2397 41.6784 76.222 42.1592C76.1999 42.7737 76.2132 43.389 76.2185 44.0044C76.2211 44.2532 76.2017 44.51 76.338 44.7296C76.3247 44.7216 76.3114 44.7145 76.2973 44.7083C74.1407 44.5507 71.9824 44.641 69.825 44.6641C69.4045 44.6685 69.2938 44.9872 69.2823 45.3485C69.2602 46.1002 69.2628 46.8528 69.2779 47.6055C69.2929 48.3094 69.4354 48.4493 70.1348 48.4688C70.7908 48.4874 71.4468 48.4847 72.1028 48.4723C72.5755 48.4626 72.7597 48.668 72.7473 49.1311C72.7314 49.7093 72.7499 50.2883 72.742 50.8674C72.7331 51.5076 72.6782 51.5634 72.0515 51.5766C71.3565 51.5908 70.6624 51.5642 69.9684 51.5908C69.6355 51.6041 69.323 51.6988 69.3088 52.0928C69.2752 53.0713 69.1734 54.0541 69.3752 55.0281C69.4 55.0555 69.4239 55.0838 69.4478 55.1122V55.1157L69.4487 55.1148ZM86.6162 55.0405C86.3824 54.9218 86.1293 54.9431 85.8805 54.9404C85.2643 54.9351 84.6491 54.9289 84.0338 54.9413C83.5982 54.9493 83.4026 54.7766 83.4114 54.3303C83.4247 53.715 83.4229 53.0987 83.4114 52.4833C83.3964 51.7077 83.2822 51.597 82.4899 51.5837C81.8737 51.574 81.2584 51.5722 80.6431 51.5837C80.2306 51.5917 80.0456 51.4314 80.0544 51.0073C80.0668 50.3539 80.0624 49.6995 80.0544 49.0452C80.0509 48.7875 80.0721 48.521 79.9075 48.297H90.1697C89.8448 49.4135 89.9794 50.5416 90.098 51.6687C90.1228 51.6971 90.1467 51.7254 90.1706 51.7537V51.7581C90.0847 51.6891 89.9926 51.6218 89.8829 51.6147C88.9241 51.5448 87.9636 51.5448 87.0048 51.6138C86.6436 51.6404 86.5418 51.9202 86.5303 52.2319C86.5028 53.0199 86.5117 53.8079 86.5259 54.596C86.5294 54.7854 86.5746 54.9634 86.6994 55.1122H86.6967C86.6702 55.0883 86.6436 55.0635 86.6162 55.0405Z" fill="#FAFAFA"/>
<path d="M65.6369 41.3327C64.0743 41.3549 62.5118 41.3425 60.9493 41.3425C59.3867 41.3425 57.7091 41.3513 56.0891 41.3345C55.7642 41.3318 55.6659 41.4168 55.6739 41.7471C55.6969 42.6334 55.6668 43.5215 55.6898 44.4087C55.6978 44.7354 55.6057 44.832 55.2764 44.8231C54.4097 44.8001 53.5403 44.8266 52.6727 44.8098C52.3948 44.8036 52.3133 44.8842 52.3186 45.1631C52.3355 46.0698 52.339 46.9774 52.3169 47.8832C52.3089 48.2108 52.4045 48.2975 52.7303 48.2967C55.8943 48.2843 59.0574 48.2843 62.2205 48.2967C62.5454 48.2975 62.6437 48.2143 62.6357 47.884C62.6127 46.9977 62.6419 46.1096 62.6198 45.2224C62.6118 44.8957 62.7039 44.8001 63.0332 44.808C63.9389 44.8302 64.8463 44.8054 65.7519 44.8222C66.0299 44.8266 66.1123 44.747 66.1069 44.468C66.0901 43.5808 66.0804 42.6927 66.1096 41.8064C66.1229 41.4266 66.014 41.3274 65.6369 41.3327Z" fill="#FAFAFA"/>
<path d="M59.1653 55.1296V55.1154V55.1128H59.1626H59.1484V55.127V55.1296H59.1493H59.1653Z" fill="#FAFAFA"/>
<path d="M62.204 55.1261C62.5032 55.1314 62.6484 55.0924 62.6369 54.7338C62.6095 53.8697 62.6148 53.0028 62.6351 52.1378C62.6422 51.834 62.5537 51.749 62.2518 51.7552C61.3479 51.7747 60.4432 51.7809 59.5402 51.7535C59.1816 51.7428 59.1436 51.8881 59.1489 52.1873C59.1675 53.1604 59.1604 54.1353 59.163 55.1093V55.1128H59.1657C60.1793 55.1155 61.1912 55.1075 62.204 55.1261Z" fill="#FAFAFA"/>
<path d="M76.5162 79.2359C76.8208 79.5068 77.5423 79.3262 78.0788 79.3129C78.6684 79.2987 79.4572 79.5697 79.79 79.2013C80.0804 78.8799 79.8865 78.1025 79.8715 77.527C79.8573 76.9754 80.1185 76.2404 79.7652 75.927C79.4598 75.6561 78.7383 75.8358 78.2018 75.8491C77.6122 75.8641 76.8208 75.5932 76.4915 75.9615C76.2055 76.2812 76.4321 77.0595 76.4321 77.6359C76.4516 78.1857 76.1639 78.9224 76.5162 79.2359Z" fill="#FAFAFA"/>
<path d="M17.8357 83.1333C17.8366 82.8136 17.7605 82.7056 17.4232 82.7074C14.2627 82.7198 11.1014 82.7206 7.9409 82.7056C7.56996 82.7038 7.49914 82.8225 7.50091 83.1651C7.51331 86.3075 7.51419 89.449 7.50003 92.5906C7.49826 92.9616 7.58324 93.0811 7.97188 93.0758C9.55212 93.0528 11.1324 93.066 12.7126 93.066C14.2928 93.066 15.7969 93.0581 17.3382 93.0722C17.6817 93.0758 17.8419 93.0324 17.8402 92.6162C17.8207 89.4552 17.8251 86.2943 17.8357 83.1333Z" fill="#FAFAFA"/>
<path d="M7.50815 12.1076C7.50815 13.6899 7.51701 15.2722 7.50107 16.8535C7.49753 17.175 7.57809 17.2741 7.91096 17.2732C11.075 17.26 14.239 17.2582 17.403 17.275C17.7792 17.2777 17.8385 17.1599 17.8368 16.8199C17.8244 13.6748 17.8235 10.5298 17.8377 7.38472C17.8385 7.03763 17.7668 6.93137 17.3986 6.93403C14.254 6.94997 11.1086 6.95085 7.96408 6.93315C7.56835 6.93049 7.49576 7.05799 7.50019 7.41836C7.51878 8.98115 7.50815 10.5439 7.50815 12.1076Z" fill="#FAFAFA"/>
<path d="M93.1823 6.93471C91.6029 6.95419 90.0218 6.94268 88.4416 6.94268C86.8613 6.94268 85.3192 6.95242 83.7584 6.93559C83.4078 6.93205 83.2591 6.98695 83.2618 7.3969C83.2803 10.5384 83.2777 13.6799 83.2635 16.8215C83.2626 17.1765 83.3521 17.2748 83.7115 17.2739C86.8719 17.2589 90.0324 17.2589 93.1938 17.2739C93.5682 17.2766 93.6311 17.1508 93.6293 16.8117C93.6169 13.6702 93.616 10.5287 93.6302 7.38716C93.632 7.03211 93.5417 6.93028 93.1823 6.93471Z" fill="#FAFAFA"/>
</g>
<defs>
<clipPath id="clip0_14295_80176">
<rect width="100" height="100" fill="white" transform="translate(0.5)"/>
</clipPath>
</defs>
</svg>
