<svg width="400" height="400" viewBox="0 0 400 400" fill="none" xmlns="http://www.w3.org/2000/svg">
<rect width="400" height="400" fill="white"/>
<path d="M199.5 351C283.171 351 351 283.171 351 199.5C351 115.829 283.171 48 199.5 48C115.829 48 48 115.829 48 199.5C48 283.171 115.829 351 199.5 351Z" fill="#FF0420"/>
<path d="M155.342 239.766C146.321 239.766 138.93 237.644 133.169 233.398C127.483 229.078 124.641 222.937 124.641 214.978C124.641 213.31 124.83 211.263 125.209 208.838C126.195 203.379 127.597 196.822 129.416 189.166C134.571 168.319 147.875 157.896 169.328 157.896C175.165 157.896 180.396 158.881 185.02 160.852C189.644 162.747 193.283 165.628 195.936 169.494C198.589 173.285 199.916 177.833 199.916 183.139C199.916 184.731 199.726 186.74 199.347 189.166C198.21 195.912 196.846 202.47 195.253 208.838C192.6 219.223 188.014 226.993 181.495 232.148C174.976 237.227 166.258 239.766 155.342 239.766ZM156.934 223.392C161.179 223.392 164.78 222.141 167.736 219.64C170.768 217.138 172.929 213.31 174.217 208.155C175.961 201.029 177.288 194.813 178.197 189.507C178.5 187.915 178.652 186.285 178.652 184.617C178.652 177.719 175.051 174.27 167.85 174.27C163.605 174.27 159.966 175.521 156.934 178.022C153.977 180.524 151.855 184.352 150.566 189.507C149.202 194.586 147.837 200.802 146.472 208.155C146.169 209.671 146.018 211.263 146.018 212.931C146.018 219.905 149.656 223.392 156.934 223.392ZM205.136 238.629C204.302 238.629 203.658 238.364 203.203 237.833C202.824 237.227 202.711 236.544 202.862 235.786L218.554 161.876C218.706 161.042 219.123 160.36 219.805 159.829C220.487 159.298 221.207 159.033 221.965 159.033H252.212C260.626 159.033 267.373 160.777 272.452 164.264C277.607 167.751 280.184 172.792 280.184 179.387C280.184 181.282 279.957 183.253 279.502 185.3C277.607 194.017 273.779 200.461 268.017 204.63C262.332 208.799 254.524 210.884 244.593 210.884H229.243L224.012 235.786C223.86 236.62 223.443 237.302 222.761 237.833C222.079 238.364 221.359 238.629 220.601 238.629H205.136ZM245.389 195.192C248.573 195.192 251.34 194.321 253.69 192.577C256.116 190.834 257.708 188.332 258.466 185.072C258.693 183.784 258.807 182.646 258.807 181.661C258.807 179.463 258.163 177.795 256.874 176.658C255.585 175.445 253.387 174.839 250.279 174.839H236.634L232.313 195.192H245.389Z" fill="white"/>
</svg>
